<svg xmlns="http://www.w3.org/2000/svg" viewBox="0 0 800 800" fill="none">
  <defs>
    <linearGradient id="bg3" x1="0" y1="0" x2="800" y2="800" gradientUnits="userSpaceOnUse">
      <stop offset="0%" stop-color="#ECFDF5"/>
      <stop offset="100%" stop-color="#A7F3D0"/>
    </linearGradient>
  </defs>
  <rect width="800" height="800" fill="url(#bg3)"/>
  <g transform="translate(100, 100)">
    <!-- Icon grid 4x4 -->
    <!-- Row 1 -->
    <rect x="0" y="0" width="130" height="130" rx="20" fill="white" opacity="0.85"/>
    <circle cx="65" cy="65" r="30" fill="none" stroke="#059669" stroke-width="3" opacity="0.7"/>
    <rect x="150" y="0" width="130" height="130" rx="20" fill="white" opacity="0.85"/>
    <rect x="190" y="40" width="50" height="50" rx="8" fill="none" stroke="#059669" stroke-width="3" opacity="0.7"/>
    <rect x="300" y="0" width="130" height="130" rx="20" fill="white" opacity="0.85"/>
    <polygon points="365,35 395,95 335,95" fill="none" stroke="#059669" stroke-width="3" opacity="0.7"/>
    <rect x="450" y="0" width="130" height="130" rx="20" fill="white" opacity="0.85"/>
    <line x1="490" y1="45" x2="540" y2="85" stroke="#059669" stroke-width="3" opacity="0.7"/>
    <line x1="540" y1="45" x2="490" y2="85" stroke="#059669" stroke-width="3" opacity="0.7"/>

    <!-- Row 2 -->
    <rect x="0" y="150" width="130" height="130" rx="20" fill="white" opacity="0.85"/>
    <path d="M45 230 L65 195 L85 230 Z" fill="none" stroke="#059669" stroke-width="3" opacity="0.7"/>
    <rect x="150" y="150" width="130" height="130" rx="20" fill="white" opacity="0.85"/>
    <circle cx="215" cy="215" r="25" fill="#059669" opacity="0.15"/>
    <circle cx="215" cy="215" r="12" fill="#059669" opacity="0.4"/>
    <rect x="300" y="150" width="130" height="130" rx="20" fill="white" opacity="0.85"/>
    <rect x="335" y="190" width="60" height="40" rx="6" fill="none" stroke="#059669" stroke-width="3" opacity="0.7"/>
    <line x1="335" y1="205" x2="395" y2="205" stroke="#059669" stroke-width="3" opacity="0.7"/>
    <rect x="450" y="150" width="130" height="130" rx="20" fill="white" opacity="0.85"/>
    <circle cx="500" cy="215" r="18" fill="none" stroke="#059669" stroke-width="3" opacity="0.7"/>
    <circle cx="530" cy="215" r="18" fill="none" stroke="#059669" stroke-width="3" opacity="0.7"/>

    <!-- Row 3 -->
    <rect x="0" y="300" width="130" height="130" rx="20" fill="white" opacity="0.85"/>
    <rect x="35" y="340" width="60" height="50" rx="25" fill="none" stroke="#059669" stroke-width="3" opacity="0.7"/>
    <rect x="150" y="300" width="130" height="130" rx="20" fill="white" opacity="0.85"/>
    <path d="M195 345 L215 365 L245 335" fill="none" stroke="#059669" stroke-width="3" stroke-linecap="round" stroke-linejoin="round" opacity="0.7"/>
    <rect x="300" y="300" width="130" height="130" rx="20" fill="white" opacity="0.85"/>
    <line x1="345" y1="365" x2="385" y2="365" stroke="#059669" stroke-width="3" opacity="0.7"/>
    <line x1="365" y1="345" x2="365" y2="385" stroke="#059669" stroke-width="3" opacity="0.7"/>
    <rect x="450" y="300" width="130" height="130" rx="20" fill="white" opacity="0.85"/>
    <path d="M495 350 L515 370 L535 340 L555 380" fill="none" stroke="#059669" stroke-width="3" stroke-linecap="round" opacity="0.7"/>

    <!-- Row 4 -->
    <rect x="0" y="450" width="130" height="130" rx="20" fill="white" opacity="0.85"/>
    <circle cx="65" cy="510" r="28" fill="#059669" opacity="0.12"/>
    <path d="M55 510 L65 495 L75 510" fill="none" stroke="#059669" stroke-width="3" opacity="0.7"/>
    <rect x="150" y="450" width="130" height="130" rx="20" fill="white" opacity="0.85"/>
    <rect x="190" y="490" width="15" height="30" rx="3" fill="#059669" opacity="0.4"/>
    <rect x="210" y="480" width="15" height="40" rx="3" fill="#059669" opacity="0.5"/>
    <rect x="230" y="495" width="15" height="25" rx="3" fill="#059669" opacity="0.3"/>
    <rect x="300" y="450" width="130" height="130" rx="20" fill="white" opacity="0.85"/>
    <circle cx="365" cy="510" r="20" fill="none" stroke="#059669" stroke-width="3" opacity="0.7"/>
    <line x1="365" y1="498" x2="365" y2="510" stroke="#059669" stroke-width="3" opacity="0.7"/>
    <line x1="365" y1="510" x2="375" y2="518" stroke="#059669" stroke-width="2.5" opacity="0.7"/>
    <rect x="450" y="450" width="130" height="130" rx="20" fill="white" opacity="0.85"/>
    <path d="M490 520 Q515 480 540 520" fill="none" stroke="#059669" stroke-width="3" opacity="0.7"/>
  </g>
</svg>
