<svg xmlns="http://www.w3.org/2000/svg" viewBox="0 0 800 800" fill="none">
  <defs>
    <linearGradient id="bg4" x1="0" y1="0" x2="800" y2="800" gradientUnits="userSpaceOnUse">
      <stop offset="0%" stop-color="#ECFEFF"/>
      <stop offset="100%" stop-color="#A5F3FC"/>
    </linearGradient>
  </defs>
  <rect width="800" height="800" fill="url(#bg4)"/>
  <g transform="translate(80, 100)">
    <!-- Browser window -->
    <rect x="0" y="0" width="640" height="520" rx="16" fill="white" opacity="0.9"/>
    <rect x="0" y="0" width="640" height="520" rx="16" fill="none" stroke="#06B6D4" stroke-width="1.5" opacity="0.2"/>
    <!-- Title bar -->
    <rect x="0" y="0" width="640" height="40" rx="16" fill="#F8FAFC"/>
    <rect x="0" y="20" width="640" height="20" fill="#F8FAFC"/>
    <circle cx="24" cy="20" r="6" fill="#FCA5A5"/>
    <circle cx="44" cy="20" r="6" fill="#FDE68A"/>
    <circle cx="64" cy="20" r="6" fill="#86EFAC"/>
    <rect x="200" y="12" width="240" height="16" rx="8" fill="#E2E8F0" opacity="0.6"/>
    <!-- Sidebar -->
    <rect x="0" y="40" width="160" height="480" fill="#F1F5F9" opacity="0.7"/>
    <rect x="16" y="60" width="100" height="12" rx="4" fill="#0E7490" opacity="0.4"/>
    <rect x="16" y="90" width="128" height="32" rx="8" fill="#0891B2" opacity="0.15"/>
    <rect x="16" y="130" width="128" height="28" rx="8" fill="transparent"/>
    <rect x="32" y="138" width="80" height="10" rx="3" fill="#64748B" opacity="0.3"/>
    <rect x="16" y="166" width="128" height="28" rx="8" fill="transparent"/>
    <rect x="32" y="174" width="70" height="10" rx="3" fill="#64748B" opacity="0.3"/>
    <rect x="16" y="202" width="128" height="28" rx="8" fill="transparent"/>
    <rect x="32" y="210" width="90" height="10" rx="3" fill="#64748B" opacity="0.3"/>
    <!-- Main content -->
    <rect x="180" y="60" width="200" height="20" rx="4" fill="#0F172A" opacity="0.6"/>
    <rect x="180" y="88" width="300" height="10" rx="3" fill="#94A3B8" opacity="0.4"/>
    <!-- Stats cards -->
    <rect x="180" y="120" width="140" height="90" rx="12" fill="#ECFEFF" stroke="#A5F3FC" stroke-width="1"/>
    <rect x="196" y="140" width="60" height="16" rx="4" fill="#0E7490" opacity="0.5"/>
    <rect x="196" y="168" width="100" height="10" rx="3" fill="#94A3B8" opacity="0.3"/>
    <rect x="336" y="120" width="140" height="90" rx="12" fill="#F0FDF4" stroke="#BBF7D0" stroke-width="1"/>
    <rect x="352" y="140" width="60" height="16" rx="4" fill="#059669" opacity="0.5"/>
    <rect x="352" y="168" width="100" height="10" rx="3" fill="#94A3B8" opacity="0.3"/>
    <rect x="492" y="120" width="130" height="90" rx="12" fill="#FFF7ED" stroke="#FED7AA" stroke-width="1"/>
    <rect x="508" y="140" width="60" height="16" rx="4" fill="#EA580C" opacity="0.5"/>
    <rect x="508" y="168" width="90" height="10" rx="3" fill="#94A3B8" opacity="0.3"/>
    <!-- Chart area -->
    <rect x="180" y="230" width="440" height="200" rx="12" fill="#F8FAFC" stroke="#E2E8F0" stroke-width="1"/>
    <path d="M210 400 L270 360 L330 380 L390 320 L450 340 L510 290 L570 310" fill="none" stroke="#0891B2" stroke-width="2.5" stroke-linecap="round" opacity="0.7"/>
    <path d="M210 400 L270 360 L330 380 L390 320 L450 340 L510 290 L570 310 L570 400 L210 400 Z" fill="#0891B2" opacity="0.05"/>
    <!-- Table -->
    <rect x="180" y="450" width="440" height="30" rx="6" fill="#F1F5F9" opacity="0.5"/>
    <rect x="196" y="460" width="80" height="10" rx="3" fill="#334155" opacity="0.3"/>
    <rect x="380" y="460" width="60" height="10" rx="3" fill="#334155" opacity="0.3"/>
    <rect x="540" y="460" width="50" height="10" rx="3" fill="#334155" opacity="0.3"/>
    <rect x="180" y="488" width="440" height="1" fill="#E2E8F0" opacity="0.5"/>
    <rect x="196" y="498" width="100" height="8" rx="3" fill="#64748B" opacity="0.2"/>
    <rect x="380" y="498" width="40" height="8" rx="3" fill="#64748B" opacity="0.2"/>
    <rect x="540" y="498" width="60" height="8" rx="3" fill="#10B981" opacity="0.3"/>
  </g>
  <!-- Code syntax floating element -->
  <g transform="translate(520, 580)">
    <rect x="0" y="0" width="220" height="160" rx="12" fill="#1E293B" opacity="0.9"/>
    <rect x="16" y="16" width="40" height="8" rx="2" fill="#7DD3FC" opacity="0.7"/>
    <rect x="62" y="16" width="60" height="8" rx="2" fill="#A5F3FC" opacity="0.5"/>
    <rect x="32" y="34" width="80" height="8" rx="2" fill="#86EFAC" opacity="0.6"/>
    <rect x="120" y="34" width="40" height="8" rx="2" fill="#FDE68A" opacity="0.5"/>
    <rect x="32" y="52" width="100" height="8" rx="2" fill="#C4B5FD" opacity="0.5"/>
    <rect x="32" y="70" width="60" height="8" rx="2" fill="#FCA5A5" opacity="0.5"/>
    <rect x="100" y="70" width="80" height="8" rx="2" fill="#A5F3FC" opacity="0.4"/>
    <rect x="16" y="88" width="30" height="8" rx="2" fill="#7DD3FC" opacity="0.7"/>
  </g>
</svg>
