<?xml version="1.0" standalone="no"?>
<!DOCTYPE svg PUBLIC "-//W3C//DTD SVG 20010904//EN"
 "http://www.w3.org/TR/2001/REC-SVG-20010904/DTD/svg10.dtd">
<svg version="1.0" xmlns="http://www.w3.org/2000/svg"
 width="1168.000000pt" height="912.000000pt" viewBox="0 0 1168.000000 912.000000"
 preserveAspectRatio="xMidYMid meet">

<g transform="translate(0.000000,912.000000) scale(0.100000,-0.100000)"
fill="#000000" stroke="none">
<path d="M5815 7494 c-11 -2 -45 -9 -75 -15 -212 -43 -411 -225 -605 -554
-211 -358 -314 -701 -333 -1105 l-7 -155 -671 -3 c-589 -2 -673 -4 -684 -17
-7 -9 -45 -71 -85 -138 -39 -67 -133 -226 -208 -354 -75 -128 -137 -235 -137
-238 0 -3 463 -5 1028 -5 l1028 0 59 -82 c33 -45 103 -133 157 -195 54 -62 98
-115 98 -118 0 -3 -607 -5 -1350 -5 l-1349 0 -16 -30 c-9 -17 -64 -112 -124
-213 -59 -100 -147 -248 -194 -328 -48 -81 -87 -154 -87 -163 0 -15 248 -16
2992 -14 l2992 3 45 75 c24 41 111 190 193 330 82 140 160 272 174 292 13 21
24 40 24 43 0 3 -312 5 -693 5 l-693 0 -120 34 c-138 38 -314 106 -435 166
-124 62 -338 181 -345 191 -3 5 534 9 1303 9 l1308 0 71 123 c39 67 134 231
212 363 78 133 142 246 142 253 0 8 -518 11 -2008 11 l-2009 0 -54 58 c-185
195 -282 368 -265 475 30 186 265 321 528 302 123 -8 225 -37 353 -99 192 -92
368 -228 582 -450 73 -75 137 -136 142 -136 6 0 16 19 22 43 19 69 185 708
231 889 l43 167 -40 42 c-22 23 -89 84 -150 136 -287 247 -602 393 -880 407
-49 3 -99 3 -110 0z"/>
</g>
</svg>
